<mxfile host="Electron" modified="2024-01-29T03:11:58.385Z" agent="Mozilla/5.0 (Windows NT 10.0; Win64; x64) AppleWebKit/537.36 (KHTML, like Gecko) draw.io/22.1.15 Chrome/120.0.6099.109 Electron/28.1.0 Safari/537.36" etag="9R4EE-rCJFiotV5fqR7p" version="22.1.15" type="device">
  <diagram name="Page-1" id="nnFRKm6Aoa9jvDVwuur0">
    <mxGraphModel dx="1050" dy="669" grid="1" gridSize="10" guides="1" tooltips="1" connect="1" arrows="1" fold="1" page="1" pageScale="1" pageWidth="3300" pageHeight="4681" math="0" shadow="0">
      <root>
        <mxCell id="0" />
        <mxCell id="1" parent="0" />
        <mxCell id="w-UHDzmlPOYR2-93QaM8-1" value="password_info" style="rounded=0;whiteSpace=wrap;html=1;" vertex="1" parent="1">
          <mxGeometry x="380" y="270" width="120" height="60" as="geometry" />
        </mxCell>
        <mxCell id="w-UHDzmlPOYR2-93QaM8-10" style="edgeStyle=orthogonalEdgeStyle;rounded=0;orthogonalLoop=1;jettySize=auto;html=1;entryX=1;entryY=0.75;entryDx=0;entryDy=0;" edge="1" parent="1" source="w-UHDzmlPOYR2-93QaM8-2" target="w-UHDzmlPOYR2-93QaM8-1">
          <mxGeometry relative="1" as="geometry" />
        </mxCell>
        <mxCell id="w-UHDzmlPOYR2-93QaM8-2" value="password_name" style="ellipse;whiteSpace=wrap;html=1;" vertex="1" parent="1">
          <mxGeometry x="500" y="370" width="120" height="80" as="geometry" />
        </mxCell>
        <mxCell id="w-UHDzmlPOYR2-93QaM8-7" style="edgeStyle=orthogonalEdgeStyle;rounded=0;orthogonalLoop=1;jettySize=auto;html=1;entryX=0;entryY=0.75;entryDx=0;entryDy=0;" edge="1" parent="1" source="w-UHDzmlPOYR2-93QaM8-3" target="w-UHDzmlPOYR2-93QaM8-1">
          <mxGeometry relative="1" as="geometry" />
        </mxCell>
        <mxCell id="w-UHDzmlPOYR2-93QaM8-3" value="update_date&amp;nbsp;" style="ellipse;whiteSpace=wrap;html=1;" vertex="1" parent="1">
          <mxGeometry x="270" y="370" width="120" height="80" as="geometry" />
        </mxCell>
        <mxCell id="w-UHDzmlPOYR2-93QaM8-9" style="edgeStyle=orthogonalEdgeStyle;rounded=0;orthogonalLoop=1;jettySize=auto;html=1;entryX=1;entryY=0.25;entryDx=0;entryDy=0;" edge="1" parent="1" source="w-UHDzmlPOYR2-93QaM8-4" target="w-UHDzmlPOYR2-93QaM8-1">
          <mxGeometry relative="1" as="geometry" />
        </mxCell>
        <mxCell id="w-UHDzmlPOYR2-93QaM8-4" value="password" style="ellipse;whiteSpace=wrap;html=1;" vertex="1" parent="1">
          <mxGeometry x="490" y="150" width="120" height="80" as="geometry" />
        </mxCell>
        <mxCell id="w-UHDzmlPOYR2-93QaM8-6" style="edgeStyle=orthogonalEdgeStyle;rounded=0;orthogonalLoop=1;jettySize=auto;html=1;entryX=0;entryY=0.25;entryDx=0;entryDy=0;" edge="1" parent="1" source="w-UHDzmlPOYR2-93QaM8-5" target="w-UHDzmlPOYR2-93QaM8-1">
          <mxGeometry relative="1" as="geometry" />
        </mxCell>
        <mxCell id="w-UHDzmlPOYR2-93QaM8-5" value="&lt;u&gt;password_id&lt;/u&gt;" style="ellipse;whiteSpace=wrap;html=1;" vertex="1" parent="1">
          <mxGeometry x="260" y="150" width="120" height="80" as="geometry" />
        </mxCell>
      </root>
    </mxGraphModel>
  </diagram>
</mxfile>
